<svg width="350" height="80" viewBox="0 0 350 80" fill="none" xmlns="http://www.w3.org/2000/svg">
<path d="M20 60V25C20 16.7157 26.7157 10 35 10H55" stroke="#C5A059" stroke-width="4" stroke-linecap="round"/>
<path d="M20 38H45" stroke="#C5A059" stroke-width="4" stroke-linecap="round"/>
<path d="M40 70V25C40 16.7157 46.7157 10 55 10H65C78.8071 10 90 21.1929 90 35C90 48.8071 78.8071 60 65 60H40" stroke="#121212" stroke-width="4" stroke-linecap="round"/>
<path d="M133.625 26.7188H132.271C131.932 25.7461 131.328 24.7148 130.461 23.625C129.605 22.5234 128.791 21.9199 128.018 21.8145C127.666 21.7676 127.197 21.7266 126.611 21.6914C126.025 21.6562 125.486 21.6387 124.994 21.6387H121.109V31.4297H123.588C124.291 31.4297 124.9 31.3535 125.416 31.2012C125.932 31.0371 126.389 30.75 126.787 30.3398C127.08 30.0469 127.361 29.5605 127.631 28.8809C127.912 28.1895 128.082 27.5977 128.141 27.1055H129.477V37.5996H128.141C128.094 37.0723 127.912 36.4336 127.596 35.6836C127.279 34.9219 127.01 34.418 126.787 34.1719C126.447 33.7969 126.014 33.5215 125.486 33.3457C124.959 33.1582 124.326 33.0645 123.588 33.0645H121.109V41.3262C121.109 41.748 121.186 42.1113 121.338 42.416C121.502 42.709 121.807 42.9492 122.252 43.1367C122.51 43.2422 122.861 43.3418 123.307 43.4355C123.764 43.5176 124.215 43.582 124.66 43.6289V45H111.213V43.6289C111.553 43.5938 112.004 43.5469 112.566 43.4883C113.129 43.418 113.521 43.3359 113.744 43.2422C114.166 43.0781 114.459 42.8496 114.623 42.5566C114.787 42.2637 114.869 41.8887 114.869 41.4316V23.8359C114.869 23.4375 114.793 23.0918 114.641 22.7988C114.5 22.4941 114.201 22.2422 113.744 22.043C113.416 21.9023 112.982 21.7734 112.443 21.6562C111.904 21.5391 111.494 21.4629 111.213 21.4277V20.0566H133.625V26.7188ZM153.154 29.6367C154.021 30.4453 154.684 31.4121 155.141 32.5371C155.598 33.6621 155.826 34.8809 155.826 36.1934C155.826 37.4941 155.598 38.7246 155.141 39.8848C154.695 41.0332 154.039 42.0176 153.172 42.8379C152.246 43.7168 151.139 44.3906 149.85 44.8594C148.572 45.3281 147.107 45.5625 145.455 45.5625C144.025 45.5625 142.707 45.3574 141.5 44.9473C140.305 44.5371 139.244 43.9219 138.318 43.1016C137.428 42.3164 136.725 41.3496 136.209 40.2012C135.693 39.041 135.436 37.7461 135.436 36.3164C135.436 34.9102 135.658 33.6621 136.104 32.5723C136.561 31.4707 137.24 30.4922 138.143 29.6367C139.01 28.8164 140.076 28.1836 141.342 27.7383C142.619 27.2812 144.043 27.0527 145.613 27.0527C147.254 27.0527 148.695 27.2812 149.938 27.7383C151.191 28.1836 152.264 28.8164 153.154 29.6367ZM148.654 41.8184C148.912 41.1621 149.1 40.3652 149.217 39.4277C149.346 38.4902 149.41 37.4004 149.41 36.1582C149.41 35.3379 149.352 34.4004 149.234 33.3457C149.117 32.291 148.941 31.459 148.707 30.8496C148.426 30.1113 148.033 29.5312 147.529 29.1094C147.037 28.6875 146.41 28.4766 145.648 28.4766C144.816 28.4766 144.148 28.7051 143.645 29.1621C143.152 29.6191 142.771 30.2109 142.502 30.9375C142.256 31.6055 142.086 32.3906 141.992 33.293C141.898 34.1836 141.852 35.1152 141.852 36.0879C141.852 37.3652 141.893 38.4258 141.975 39.2695C142.057 40.1016 142.256 40.9395 142.572 41.7832C142.842 42.5098 143.229 43.084 143.732 43.5059C144.236 43.9277 144.875 44.1387 145.648 44.1387C146.352 44.1387 146.955 43.9453 147.459 43.5586C147.963 43.1602 148.361 42.5801 148.654 41.8184ZM181.297 45H170.715V43.7168C170.938 43.6934 171.207 43.6641 171.523 43.6289C171.84 43.5938 172.08 43.5352 172.244 43.4531C172.49 43.3242 172.666 43.1367 172.771 42.8906C172.877 42.6445 172.93 42.2812 172.93 41.8008V33.5742C172.93 32.3789 172.707 31.4824 172.262 30.8848C171.828 30.2754 171.184 29.9707 170.328 29.9707C169.859 29.9707 169.42 30.041 169.01 30.1816C168.611 30.3223 168.219 30.5273 167.832 30.7969C167.492 31.0312 167.217 31.2715 167.006 31.5176C166.807 31.7637 166.637 31.9805 166.496 32.168V41.6074C166.496 42.0176 166.555 42.3633 166.672 42.6445C166.789 42.9141 166.982 43.1191 167.252 43.2598C167.439 43.3652 167.674 43.459 167.955 43.541C168.236 43.623 168.512 43.6816 168.781 43.7168V45H158.094V43.7168C158.387 43.6934 158.68 43.6641 158.973 43.6289C159.277 43.582 159.535 43.5234 159.746 43.4531C160.121 43.3242 160.379 43.125 160.52 42.8555C160.66 42.5859 160.73 42.2344 160.73 41.8008V31.5703C160.73 31.207 160.637 30.8496 160.449 30.498C160.262 30.1465 160.016 29.8594 159.711 29.6367C159.5 29.4961 159.23 29.3789 158.902 29.2852C158.586 29.1914 158.234 29.127 157.848 29.0918V27.8086L166.232 27.3516L166.496 27.6152V30.1641H166.566C166.895 29.8711 167.293 29.5195 167.762 29.1094C168.23 28.6992 168.664 28.3652 169.062 28.1074C169.496 27.8262 170.064 27.5859 170.768 27.3867C171.471 27.1875 172.221 27.0879 173.018 27.0879C174.928 27.0879 176.357 27.6328 177.307 28.7227C178.268 29.8008 178.748 31.2363 178.748 33.0293V41.6426C178.748 42.0762 178.812 42.4219 178.941 42.6797C179.07 42.9375 179.311 43.1426 179.662 43.2949C179.85 43.377 180.078 43.459 180.348 43.541C180.629 43.623 180.945 43.6816 181.297 43.7168V45ZM196.027 44.1914C195.277 44.5195 194.475 44.8125 193.619 45.0703C192.764 45.3398 191.721 45.4746 190.49 45.4746C188.662 45.4746 187.303 45.0293 186.412 44.1387C185.533 43.248 185.094 41.9766 185.094 40.3242V29.5312H181.93V27.6328H185.164V22.3066H190.877V27.6328H195.799V29.5312H190.912V39.1641C190.912 40.5352 191.1 41.5078 191.475 42.082C191.861 42.6562 192.547 42.9434 193.531 42.9434C193.848 42.9434 194.287 42.9199 194.85 42.873C195.412 42.8262 195.805 42.7734 196.027 42.7148V44.1914ZM219.916 22.623C221.439 23.6191 222.67 24.9492 223.607 26.6133C224.545 28.2656 225.014 30.293 225.014 32.6953C225.014 34.8047 224.592 36.6445 223.748 38.2148C222.916 39.7734 221.809 41.0508 220.426 42.0469C219.02 43.043 217.42 43.7871 215.627 44.2793C213.846 44.7598 211.977 45 210.02 45H197.451V43.6289C197.826 43.6172 198.295 43.582 198.857 43.5234C199.42 43.4648 199.795 43.3945 199.982 43.3125C200.404 43.1367 200.697 42.9023 200.861 42.6094C201.025 42.3047 201.107 41.9414 201.107 41.5195V23.8359C201.107 23.4375 201.031 23.0801 200.879 22.7637C200.727 22.4355 200.428 22.1719 199.982 21.9727C199.537 21.7734 199.062 21.6387 198.559 21.5684C198.066 21.498 197.686 21.4512 197.416 21.4277V20.0566H210.688C212.105 20.0566 213.623 20.2383 215.24 20.6016C216.857 20.9648 218.416 21.6387 219.916 22.623ZM216.33 40.5C216.904 39.5625 217.32 38.4492 217.578 37.1602C217.848 35.8594 217.982 34.3652 217.982 32.6777C217.982 31.0254 217.807 29.5195 217.455 28.1602C217.104 26.8008 216.588 25.6406 215.908 24.6797C215.229 23.7188 214.379 22.9746 213.359 22.4473C212.352 21.9199 211.203 21.6562 209.914 21.6562C209.504 21.6562 209.035 21.668 208.508 21.6914C207.992 21.7031 207.605 21.7148 207.348 21.7266V40.6582C207.348 41.0801 207.4 41.4551 207.506 41.7832C207.623 42.0996 207.816 42.3809 208.086 42.627C208.355 42.873 208.684 43.0664 209.07 43.207C209.469 43.3359 209.984 43.4004 210.617 43.4004C211.941 43.4004 213.078 43.1543 214.027 42.6621C214.977 42.1699 215.744 41.4492 216.33 40.5ZM247.373 44.6309C246.857 44.8535 246.248 45.0586 245.545 45.2461C244.842 45.4336 244.098 45.5273 243.312 45.5273C241.871 45.5273 240.811 45.3164 240.131 44.8945C239.451 44.4609 238.988 43.8457 238.742 43.0488H238.637C238.238 43.4473 237.852 43.7871 237.477 44.0684C237.113 44.3496 236.721 44.5898 236.299 44.7891C235.748 45.0469 235.215 45.2344 234.699 45.3516C234.195 45.4805 233.486 45.5449 232.572 45.5449C231.213 45.5449 230.053 45.1465 229.092 44.3496C228.131 43.541 227.65 42.4746 227.65 41.1504C227.65 40.3887 227.756 39.7441 227.967 39.2168C228.178 38.6777 228.477 38.2031 228.863 37.793C229.215 37.418 229.619 37.1074 230.076 36.8613C230.545 36.6152 231.055 36.3867 231.605 36.1758C232.66 35.7891 233.926 35.3906 235.402 34.9805C236.879 34.5586 237.957 34.1836 238.637 33.8555V32.168C238.637 31.875 238.613 31.4883 238.566 31.0078C238.52 30.5273 238.42 30.123 238.268 29.7949C238.104 29.4199 237.846 29.1035 237.494 28.8457C237.143 28.5879 236.68 28.459 236.105 28.459C235.59 28.459 235.156 28.5352 234.805 28.6875C234.465 28.8281 234.189 28.9746 233.979 29.127C234.014 29.3613 234.113 29.7188 234.277 30.1992C234.441 30.6797 234.523 31.1426 234.523 31.5879C234.523 31.7871 234.471 32.0391 234.365 32.3438C234.26 32.6367 234.107 32.8711 233.908 33.0469C233.639 33.2812 233.334 33.4629 232.994 33.5918C232.666 33.7207 232.156 33.7852 231.465 33.7852C230.48 33.7852 229.736 33.5508 229.232 33.082C228.729 32.6016 228.477 31.9805 228.477 31.2188C228.477 30.5625 228.734 29.9766 229.25 29.4609C229.777 28.9336 230.416 28.5 231.166 28.1602C231.904 27.8086 232.754 27.5391 233.715 27.3516C234.676 27.1523 235.566 27.0527 236.387 27.0527C237.523 27.0527 238.566 27.123 239.516 27.2637C240.465 27.3926 241.32 27.668 242.082 28.0898C242.809 28.5 243.383 29.0977 243.805 29.8828C244.238 30.6562 244.455 31.6699 244.455 32.9238C244.455 34.248 244.426 35.8184 244.367 37.6348C244.32 39.4512 244.297 40.6465 244.297 41.2207C244.297 41.748 244.373 42.1641 244.525 42.4688C244.689 42.7734 244.936 43.002 245.264 43.1543C245.463 43.248 245.773 43.3066 246.195 43.3301C246.629 43.3418 247.021 43.3477 247.373 43.3477V44.6309ZM238.637 35.4727C237.98 35.6953 237.33 35.9531 236.686 36.2461C236.041 36.5273 235.514 36.8262 235.104 37.1426C234.67 37.4707 234.33 37.8926 234.084 38.4082C233.838 38.9121 233.715 39.5098 233.715 40.2012C233.715 41.1152 233.92 41.7773 234.33 42.1875C234.752 42.5977 235.268 42.8027 235.877 42.8027C236.521 42.8027 237.049 42.6738 237.459 42.416C237.881 42.1465 238.25 41.8184 238.566 41.4316L238.637 35.4727ZM259.432 45H248.41V43.7168C248.715 43.6934 249.008 43.6641 249.289 43.6289C249.582 43.5938 249.84 43.5352 250.062 43.4531C250.438 43.3125 250.689 43.1133 250.818 42.8555C250.959 42.5859 251.029 42.2344 251.029 41.8008V22.3242C251.029 21.8789 250.936 21.4688 250.748 21.0938C250.572 20.707 250.332 20.4141 250.027 20.2148C249.793 20.0625 249.436 19.916 248.955 19.7754C248.486 19.6348 248.07 19.5527 247.707 19.5293V18.2461L256.549 17.7891L256.812 18.0703V41.5723C256.812 42.0059 256.889 42.3574 257.041 42.627C257.193 42.8965 257.439 43.1074 257.779 43.2598C258.014 43.3652 258.26 43.459 258.518 43.541C258.775 43.623 259.08 43.6816 259.432 43.7168V45ZM280.033 40.7988C279.623 41.4668 279.125 42.0996 278.539 42.6973C277.965 43.2832 277.309 43.7871 276.57 44.209C275.785 44.6543 274.988 44.9883 274.18 45.2109C273.383 45.4453 272.463 45.5625 271.42 45.5625C269.686 45.5625 268.186 45.3164 266.92 44.8242C265.666 44.332 264.629 43.6699 263.809 42.8379C262.988 42.0059 262.373 41.0273 261.963 39.9023C261.564 38.7656 261.365 37.5352 261.365 36.2109C261.365 35.0156 261.582 33.873 262.016 32.7832C262.461 31.6816 263.088 30.7031 263.896 29.8477C264.693 29.0156 265.695 28.3418 266.902 27.8262C268.121 27.3105 269.48 27.0527 270.98 27.0527C272.621 27.0527 273.969 27.252 275.023 27.6504C276.078 28.0488 276.951 28.5996 277.643 29.3027C278.311 29.9707 278.797 30.7617 279.102 31.6758C279.406 32.5781 279.559 33.5273 279.559 34.5234V35.666H267.676C267.676 38.0684 268.139 39.8965 269.064 41.1504C269.99 42.4043 271.461 43.0312 273.477 43.0312C274.578 43.0312 275.568 42.7324 276.447 42.1348C277.326 41.5254 278.076 40.7578 278.697 39.832L280.033 40.7988ZM273.318 34.1191C273.318 33.416 273.283 32.6953 273.213 31.957C273.143 31.2188 273.02 30.6152 272.844 30.1465C272.645 29.5957 272.369 29.1797 272.018 28.8984C271.678 28.6172 271.244 28.4766 270.717 28.4766C269.814 28.4766 269.094 28.9336 268.555 29.8477C268.016 30.7617 267.723 32.209 267.676 34.1895L273.318 34.1191Z" fill="#121212"/>
<path d="M112.984 67L116.008 59.126H117.13L120.353 67H119.166L118.248 64.6152H114.955L114.09 67H112.984ZM115.256 63.7666H117.925L117.104 61.5859C116.853 60.9235 116.667 60.3792 116.545 59.9531C116.445 60.458 116.303 60.9593 116.121 61.457L115.256 63.7666ZM121.202 67V59.126H124.693C125.395 59.126 125.928 59.1976 126.293 59.3408C126.659 59.4805 126.951 59.7293 127.169 60.0874C127.387 60.4455 127.497 60.8411 127.497 61.2744C127.497 61.833 127.316 62.3039 126.954 62.687C126.592 63.0701 126.034 63.3136 125.278 63.4175C125.554 63.55 125.764 63.6807 125.907 63.8096C126.211 64.0889 126.499 64.438 126.771 64.8569L128.141 67H126.831L125.789 65.3618C125.484 64.8892 125.234 64.5275 125.037 64.2769C124.84 64.0262 124.662 63.8507 124.505 63.7505C124.351 63.6502 124.193 63.5804 124.032 63.541C123.914 63.516 123.721 63.5034 123.452 63.5034H122.244V67H121.202ZM122.244 62.6011H124.483C124.96 62.6011 125.332 62.5527 125.601 62.4561C125.869 62.3558 126.073 62.1982 126.213 61.9834C126.353 61.765 126.422 61.5286 126.422 61.2744C126.422 60.902 126.286 60.5959 126.014 60.356C125.746 60.116 125.319 59.9961 124.736 59.9961H122.244V62.6011ZM134.753 64.2393L135.795 64.5024C135.576 65.3582 135.183 66.0117 134.613 66.4629C134.048 66.9105 133.355 67.1343 132.535 67.1343C131.686 67.1343 130.995 66.9624 130.461 66.6187C129.931 66.2713 129.527 65.77 129.248 65.1147C128.972 64.4595 128.834 63.7559 128.834 63.0039C128.834 62.1839 128.99 61.4696 129.301 60.8608C129.616 60.2485 130.062 59.7848 130.639 59.4697C131.219 59.151 131.856 58.9917 132.551 58.9917C133.339 58.9917 134.001 59.1922 134.538 59.5933C135.075 59.9943 135.449 60.5583 135.661 61.2852L134.635 61.5269C134.452 60.9539 134.187 60.5368 133.84 60.2754C133.493 60.014 133.056 59.8833 132.529 59.8833C131.924 59.8833 131.417 60.0283 131.009 60.3184C130.605 60.6084 130.32 60.9987 130.155 61.4893C129.991 61.9762 129.908 62.4793 129.908 62.9985C129.908 63.6681 130.005 64.2536 130.198 64.7549C130.395 65.2526 130.7 65.625 131.111 65.8721C131.523 66.1191 131.969 66.2427 132.449 66.2427C133.032 66.2427 133.527 66.0744 133.931 65.7378C134.336 65.4012 134.61 64.9017 134.753 64.2393ZM136.219 67L139.243 59.126H140.366L143.588 67H142.401L141.483 64.6152H138.19L137.326 67H136.219ZM138.491 63.7666H141.161L140.339 61.5859C140.088 60.9235 139.902 60.3792 139.78 59.9531C139.68 60.458 139.539 60.9593 139.356 61.457L138.491 63.7666ZM144.421 67V59.126H147.133C147.746 59.126 148.213 59.1636 148.535 59.2388C148.986 59.3426 149.371 59.5306 149.69 59.8027C150.105 60.1536 150.415 60.603 150.619 61.1509C150.827 61.6951 150.931 62.3182 150.931 63.02C150.931 63.618 150.861 64.1479 150.721 64.6099C150.582 65.0718 150.403 65.4549 150.184 65.7593C149.966 66.0601 149.726 66.2982 149.464 66.4736C149.207 66.6455 148.893 66.7762 148.524 66.8657C148.159 66.9552 147.738 67 147.262 67H144.421ZM145.463 66.0708H147.144C147.663 66.0708 148.07 66.0225 148.363 65.9258C148.66 65.8291 148.897 65.693 149.072 65.5176C149.319 65.2705 149.511 64.9393 149.647 64.5239C149.787 64.105 149.856 63.5983 149.856 63.0039C149.856 62.1803 149.72 61.5483 149.448 61.1079C149.18 60.6639 148.852 60.3667 148.465 60.2163C148.186 60.1089 147.737 60.0552 147.117 60.0552H145.463V66.0708ZM152.547 67V59.126H153.589V67H152.547ZM154.567 67L157.591 59.126H158.713L161.936 67H160.749L159.831 64.6152H156.538L155.673 67H154.567ZM156.839 63.7666H159.508L158.687 61.5859C158.436 60.9235 158.25 60.3792 158.128 59.9531C158.028 60.458 157.886 60.9593 157.704 61.457L156.839 63.7666ZM170.836 64.2393L171.878 64.5024C171.66 65.3582 171.266 66.0117 170.696 66.4629C170.131 66.9105 169.438 67.1343 168.618 67.1343C167.769 67.1343 167.078 66.9624 166.544 66.6187C166.014 66.2713 165.61 65.77 165.331 65.1147C165.055 64.4595 164.917 63.7559 164.917 63.0039C164.917 62.1839 165.073 61.4696 165.384 60.8608C165.699 60.2485 166.145 59.7848 166.722 59.4697C167.302 59.151 167.939 58.9917 168.634 58.9917C169.422 58.9917 170.084 59.1922 170.621 59.5933C171.158 59.9943 171.532 60.5583 171.744 61.2852L170.718 61.5269C170.535 60.9539 170.27 60.5368 169.923 60.2754C169.576 60.014 169.139 59.8833 168.612 59.8833C168.007 59.8833 167.5 60.0283 167.092 60.3184C166.688 60.6084 166.403 60.9987 166.238 61.4893C166.074 61.9762 165.991 62.4793 165.991 62.9985C165.991 63.6681 166.088 64.2536 166.281 64.7549C166.478 65.2526 166.783 65.625 167.194 65.8721C167.606 66.1191 168.052 66.2427 168.532 66.2427C169.115 66.2427 169.61 66.0744 170.014 65.7378C170.419 65.4012 170.693 64.9017 170.836 64.2393ZM173.344 67V59.126H174.386V67H173.344ZM176.245 67V59.126H179.736C180.438 59.126 180.971 59.1976 181.336 59.3408C181.702 59.4805 181.993 59.7293 182.212 60.0874C182.43 60.4455 182.54 60.8411 182.54 61.2744C182.54 61.833 182.359 62.3039 181.997 62.687C181.635 63.0701 181.077 63.3136 180.321 63.4175C180.597 63.55 180.806 63.6807 180.95 63.8096C181.254 64.0889 181.542 64.438 181.814 64.8569L183.184 67H181.874L180.832 65.3618C180.527 64.8892 180.277 64.5275 180.08 64.2769C179.883 64.0262 179.705 63.8507 179.548 63.7505C179.394 63.6502 179.236 63.5804 179.075 63.541C178.957 63.516 178.764 63.5034 178.495 63.5034H177.287V67H176.245ZM177.287 62.6011H179.526C180.003 62.6011 180.375 62.5527 180.644 62.4561C180.912 62.3558 181.116 62.1982 181.256 61.9834C181.396 61.765 181.465 61.5286 181.465 61.2744C181.465 60.902 181.329 60.5959 181.057 60.356C180.789 60.116 180.362 59.9961 179.779 59.9961H177.287V62.6011ZM189.796 64.2393L190.838 64.5024C190.619 65.3582 190.226 66.0117 189.656 66.4629C189.09 66.9105 188.398 67.1343 187.578 67.1343C186.729 67.1343 186.038 66.9624 185.504 66.6187C184.974 66.2713 184.57 65.77 184.291 65.1147C184.015 64.4595 183.877 63.7559 183.877 63.0039C183.877 62.1839 184.033 61.4696 184.344 60.8608C184.659 60.2485 185.105 59.7848 185.682 59.4697C186.262 59.151 186.899 58.9917 187.594 58.9917C188.382 58.9917 189.044 59.1922 189.581 59.5933C190.118 59.9943 190.492 60.5583 190.704 61.2852L189.678 61.5269C189.495 60.9539 189.23 60.5368 188.883 60.2754C188.535 60.014 188.099 59.8833 187.572 59.8833C186.967 59.8833 186.46 60.0283 186.052 60.3184C185.648 60.6084 185.363 60.9987 185.198 61.4893C185.034 61.9762 184.951 62.4793 184.951 62.9985C184.951 63.6681 185.048 64.2536 185.241 64.7549C185.438 65.2526 185.743 65.625 186.154 65.8721C186.566 66.1191 187.012 66.2427 187.492 66.2427C188.075 66.2427 188.569 66.0744 188.974 65.7378C189.379 65.4012 189.653 64.9017 189.796 64.2393ZM192.084 67V59.126H193.126V66.0708H197.004V67H192.084ZM198.271 67V59.126H203.965V60.0552H199.313V62.4668H203.669V63.3906H199.313V66.0708H204.147V67H198.271Z" fill="#C5A059"/>
</svg>
